<?xml version="1.0" encoding="utf-8"?>
<!-- Generator: Adobe Illustrator 19.0.1, SVG Export Plug-In . SVG Version: 6.00 Build 0)  -->
<svg version="1.1" id="Layer_1" xmlns="http://www.w3.org/2000/svg" xmlns:xlink="http://www.w3.org/1999/xlink" x="0px" y="0px"
	 viewBox="93.4 -80 225.2 225.2" style="enable-background:new 93.4 -80 225.2 225.2;" xml:space="preserve">
<style type="text/css">
	.st0{fill:#9EDCF2;}
	.st1{fill:#7DBCE7;}
	.st2{fill:#010101;}
	.st3{fill:#F5CCB3;}
	.st4{fill:#FFFFFF;}
	.st5{fill:#AF5C51;}
	.st6{fill:#C4E5D9;}
</style>
<g>
	<path class="st0" d="M186.6,120.6c0.7,1.7,1.2,3.6,1.2,6v17.8c1.3,0.1,2.5,0.2,3.8,0.3v-11.4C191.6,133.2,191.3,124.1,186.6,120.6z
		"/>
	<path class="st0" d="M278.9,120.1c0-14-32.2-25.1-71.9-25.1s-71.9,11.2-71.9,25.1c0,9.9,16.6,18.5,40.6,22.6v-15.9
		c0,0-0.7-7.6-7.7-10.2c0,0-4.2-2.9,0.3-4.5c0,0,12.9-1.1,17.7,7.2c-0.5-1.6-0.7-4.2,4.3-3.1c0,0,13.4,2,14,17.6l0.1,11.4
		c0.9,0,1.7,0,2.6,0c0.3,0,0.7,0,1,0l0.1-11.4c0.6-15.7,14-17.6,14-17.6c4.9-1.1,4.8,1.5,4.3,3.1c4.8-8.2,17.7-7.2,17.7-7.2
		c4.4,1.6,0.3,4.5,0.3,4.5c-7.1,2.5-7.7,10.2-7.7,10.2V143C261.6,139.1,278.9,130.3,278.9,120.1z"/>
	<path class="st0" d="M220.8,133.2v11.5c1.3-0.1,2.5-0.2,3.8-0.3v-17.9c0-2.4,0.4-4.3,1.2-6C221.1,124.1,220.8,133.2,220.8,133.2z"
		/>
	<path class="st1" d="M225.9,120.4c0,0,0.3-0.5,0.5-1.1c-0.2,0.4-0.4,0.8-0.6,1.3C225.8,120.5,225.8,120.5,225.9,120.4z"/>
	<path class="st1" d="M220.8,133.2c0,0,0.3-9.1,5-12.7c0.2-0.4,0.4-0.9,0.6-1.3c0.5-1.6,0.7-4.1-4.3-3.1c0,0-13.4,1.9-14,17.6
		l-0.1,11.4c4.4,0,8.7-0.2,12.8-0.5V133.2z"/>
	<path class="st1" d="M187.8,126.5c0-2.4-0.4-4.3-1.2-6c-0.1,0-0.1-0.1-0.1-0.1c0,0-0.3-0.5-0.5-1.1c-4.8-8.2-17.7-7.2-17.7-7.2
		c-4.5,1.6-0.3,4.5-0.3,4.5c7,2.6,7.7,10.2,7.7,10.2v15.9c3.9,0.7,7.9,1.2,12.1,1.6V126.5z"/>
	<path class="st1" d="M244.4,116.6c0,0,4.1-2.9-0.3-4.5c0,0-12.9-1.1-17.7,7.2c-0.2,0.7-0.5,1.1-0.5,1.1c-0.1,0-0.1,0.1-0.1,0.1
		c-0.7,1.7-1.2,3.6-1.2,6v17.9c4.2-0.4,8.2-0.9,12.1-1.5v-16.2C236.7,126.8,237.3,119.1,244.4,116.6z"/>
	<path class="st1" d="M186.6,120.6c-0.2-0.4-0.4-0.9-0.6-1.2c0.2,0.6,0.5,1.1,0.5,1.1C186.6,120.5,186.6,120.5,186.6,120.6z"/>
	<path class="st1" d="M191.6,133.2v11.4c4.1,0.3,8.4,0.5,12.8,0.6l-0.1-11.4c-0.6-15.6-14-17.6-14-17.6c-5-1.1-4.8,1.5-4.3,3.1
		c0.2,0.4,0.4,0.8,0.6,1.2C191.3,124.1,191.6,133.2,191.6,133.2z"/>
</g>
<path class="st2" d="M318.6,21.5c-16.8-3.3-32.7-4.3-42.7-4.6c0.6-1.5,1.1-3,1.6-4.6c10.2-0.4,25.2-0.5,41.1,1.4v-0.9
	c-15.7-1.8-30.5-1.8-40.4-1.3c2.1-7.7,2.8-16.7,2.8-26.6c0-14.3-5.4-25.7-14-34.3c1.5-4.9,3.5-15.8-2-29.7c0,0-9.8-3.1-32.1,11.8
	c-8.7-2.2-18-3.3-27.3-3.3c-10.2,0-20.5,1.3-30.2,3.9c-23-15.7-33.1-12.5-33.1-12.5c-6.6,16.5-2.5,28.8-1.3,31.8
	c-7.8,8.4-12.5,19.1-12.5,32.2c0,9.9,1.1,18.8,3.9,26.5c-9.9-0.4-24-0.4-39,1.4v0.9c15.2-1.7,29.5-1.7,39.3-1.3
	c0.6,1.6,1.3,3.2,2,4.7c-9.9,0.3-25.2,1.4-41.3,4.5v1c16.4-3.2,32-4.2,41.9-4.5c7.8,14.4,23,23.8,50.2,26.7c-3.9,2.6-7.8,7-9.4,14.5
	c-5.3,2.5-21.9,8.7-31.9-8.5c0,0-5.6-10.2-16.3-11c0,0-10.4-0.2-0.7,6.5c0,0,6.9,3.3,11.7,15.6c0,0,6.3,21,36.4,14.2v21.5
	c0,0-0.6,7.7-7.7,10.2c0,0-4.2,2.9,0.3,4.5c0,0,19.5,1.6,19.5-14.4V74c0,0-0.8-9.4,3.8-12.6v38.8c0,0-0.3,9.3-5.1,12.8
	c0,0-3.2,5.7,3.8,4.2c0,0,13.4-1.9,14-17.6l0.3-39.3h3.2l0.3,39.3c0.6,15.6,14,17.6,14,17.6c7,1.6,3.8-4.2,3.8-4.2
	c-4.8-3.5-5.1-12.8-5.1-12.8V61.7c4.6,3.6,3.8,12.3,3.8,12.3v23.6c0,16,19.5,14.4,19.5,14.4c4.5-1.6,0.3-4.5,0.3-4.5
	c-7-2.6-7.7-10.2-7.7-10.2v-31c0-12.1-5.1-18.5-10.1-21.8c29-2.9,42.9-12.2,49.3-26.8c9.9,0.2,26.1,1.3,43.1,4.7V21.5z"/>
<path class="st0" d="M124.9,46.2l-2.1,7.2c0,0-0.5,2.6,1.9,3.1c2.6-0.1,2.4-2.5,2.2-3.2L124.9,46.2L124.9,46.2z"/>
<path class="st3" d="M252.6-16c6.2,5.7,9.9,12.5,9.9,19.8c0,34.4-25.6,35.3-57.2,35.3s-57.2-4.8-57.2-35.3c0-7.3,3.6-14.1,9.8-19.7
	c10.3-9.4,27.7-4.4,47.4-4.4C225-20.3,242.3-25.4,252.6-16L252.6-16z"/>
<path class="st4" d="M186.3,5.6c0,9.5-5.3,17.1-11.9,17.1c-6.6,0-11.9-7.7-11.9-17.1c0-9.5,5.3-17.1,11.9-17.1
	C181-11.6,186.3-3.9,186.3,5.6L186.3,5.6z"/>
<path class="st5" d="M182.5,5.8c0,6.3-3.6,11.4-7.9,11.4c-4.4,0-7.9-5.1-7.9-11.4s3.6-11.4,7.9-11.4S182.5-0.5,182.5,5.8L182.5,5.8z
	"/>
<path class="st4" d="M250.2,5.6c0,9.5-5.3,17.1-11.9,17.1c-6.6,0-11.9-7.7-11.9-17.1c0-9.5,5.3-17.1,11.9-17.1
	C244.8-11.6,250.2-3.9,250.2,5.6L250.2,5.6z"/>
<path class="st5" d="M246.3,5.8c0,6.3-3.6,11.4-7.9,11.4c-4.4,0-7.9-5.1-7.9-11.4s3.6-11.4,7.9-11.4C242.8-5.6,246.3-0.5,246.3,5.8
	L246.3,5.8z"/>
<path class="st5" d="M208.5,20.8c0,1.6-1.3,3-3,3c-1.6,0-3-1.3-3-3s1.3-3,3-3C207.1,17.8,208.5,19.1,208.5,20.8L208.5,20.8z"/>
<path class="st5" d="M198.6,28.3c-0.2-0.5,0.1-1,0.6-1.2s1,0.1,1.2,0.6c0.8,2.2,2.8,3.6,5.1,3.6s4.3-1.5,5.1-3.6
	c0.2-0.5,0.7-0.8,1.2-0.6c0.5,0.2,0.8,0.7,0.6,1.2c-1,2.9-3.8,4.9-6.9,4.9C202.4,33.2,199.6,31.2,198.6,28.3L198.6,28.3z"/>
<path class="st6" d="M132.5,41.9c0,0.8-0.9,1.4-2.1,1.4c-1.1,0-2.1-0.6-2.1-1.4s0.9-1.4,2.1-1.4S132.5,41.1,132.5,41.9L132.5,41.9z"
	/>
<path class="st6" d="M138.3,45.1c0,0.8-0.9,1.4-2.1,1.4c-1.1,0-2.1-0.6-2.1-1.4s0.9-1.4,2.1-1.4S138.3,44.3,138.3,45.1L138.3,45.1z"
	/>
<path class="st6" d="M141.8,49.3c0,0.8-0.9,1.4-2.1,1.4c-1.1,0-2.1-0.6-2.1-1.4c0-0.8,0.9-1.4,2.1-1.4
	C140.9,47.8,141.8,48.5,141.8,49.3L141.8,49.3z"/>
<path class="st6" d="M145,54.1c0,0.8-0.9,1.4-2.1,1.4c-1.1,0-2.1-0.6-2.1-1.4c0-0.8,0.9-1.4,2.1-1.4C144.1,52.6,145,53.3,145,54.1
	L145,54.1z"/>
<path class="st6" d="M148.5,58.5c0,0.8-0.9,1.4-2.1,1.4c-1.1,0-2.1-0.6-2.1-1.4c0-0.8,0.9-1.4,2.1-1.4
	C147.6,57.1,148.5,57.7,148.5,58.5L148.5,58.5z"/>
<path class="st6" d="M153.3,62.4c0,0.8-0.9,1.4-2.1,1.4c-1.1,0-2.1-0.6-2.1-1.4c0-0.8,0.9-1.4,2.1-1.4
	C152.4,60.9,153.3,61.6,153.3,62.4L153.3,62.4z"/>
<path class="st6" d="M160,64.9c0,0.8-0.9,1.4-2.1,1.4c-1.1,0-2.1-0.6-2.1-1.4s0.9-1.4,2.1-1.4S160,64.1,160,64.9L160,64.9z"/>
<path class="st6" d="M166.7,64.9c0,0.8-0.9,1.4-2.1,1.4c-1.1,0-2.1-0.6-2.1-1.4s0.9-1.4,2.1-1.4S166.7,64.1,166.7,64.9L166.7,64.9z"
	/>
<path class="st6" d="M173.5,63.8c0,0.8-0.9,1.4-2.1,1.4c-1.1,0-2.1-0.6-2.1-1.4c0-0.8,0.9-1.4,2.1-1.4
	C172.5,62.4,173.5,63,173.5,63.8L173.5,63.8z"/>
</svg>
