<?xml version="1.0" encoding="utf-8"?>
<!-- Generator: Adobe Illustrator 19.0.1, SVG Export Plug-In . SVG Version: 6.00 Build 0)  -->
<svg version="1.1" id="Layer_1" xmlns="http://www.w3.org/2000/svg" xmlns:xlink="http://www.w3.org/1999/xlink" x="0px" y="0px"
	 viewBox="0 0 311.1 41.5" style="enable-background:new 0 0 311.1 41.5;" xml:space="preserve">
<g>
	<g>
		<path style="fill:#22B573;" d="M30.7,5.6c0-0.7,0.3-1.4,0.8-1.9c0.5-0.5,1.2-0.8,2-0.8s1.5,0.3,2.1,0.8c0.6,0.5,0.8,1.2,0.8,1.9
			s-0.3,1.4-0.8,1.9c-0.6,0.5-1.3,0.8-2.1,0.8s-1.5-0.3-2-0.8C31,7,30.7,6.4,30.7,5.6z M31.3,11.7h4.5v17.9h-4.5V11.7z"/>
		<path style="fill:#22B573;" d="M62.7,11.2c1.2,0,2.2,0.2,3,0.6c0.8,0.4,1.5,1,2.1,1.6c0.5,0.7,0.9,1.4,1.2,2.3
			c0.2,0.9,0.4,1.8,0.4,2.7v11.2h-4.5v-9.9c0-0.5,0-1.1-0.1-1.6c-0.1-0.6-0.2-1.1-0.5-1.5c-0.2-0.5-0.6-0.8-1-1.1
			c-0.4-0.3-1-0.4-1.7-0.4c-0.7,0-1.3,0.1-1.8,0.4c-0.5,0.3-0.9,0.7-1.2,1.2c-0.3,0.5-0.6,1-0.7,1.6c-0.1,0.6-0.2,1.2-0.2,1.7v9.8
			H53V18.8c0-1.1-0.3-2-0.8-2.8c-0.5-0.7-1.4-1.1-2.5-1.1c-0.7,0-1.3,0.1-1.8,0.4S47,16,46.7,16.5c-0.3,0.4-0.5,1-0.7,1.5
			c-0.2,0.6-0.2,1.2-0.2,1.8v9.9h-4.5V11.7h4.3v2.9h0.1c0.2-0.4,0.5-0.9,0.8-1.3c0.3-0.4,0.7-0.8,1.2-1.1c0.5-0.3,1-0.6,1.6-0.8
			c0.6-0.2,1.3-0.3,2-0.3c1.4,0,2.6,0.3,3.5,0.9c0.9,0.6,1.6,1.4,2.1,2.5c0.6-1.1,1.4-1.9,2.4-2.5C60.1,11.5,61.3,11.2,62.7,11.2z"
			/>
		<path style="fill:#22B573;" d="M78.8,11.7v2.5h0.1c0.2-0.3,0.5-0.7,0.9-1.1c0.4-0.4,0.8-0.7,1.3-1c0.5-0.3,1.1-0.5,1.8-0.7
			c0.7-0.2,1.4-0.3,2.2-0.3c1.3,0,2.4,0.2,3.5,0.7c1.1,0.5,2,1.2,2.8,2c0.8,0.8,1.4,1.8,1.8,3c0.4,1.1,0.6,2.4,0.6,3.7
			c0,1.3-0.2,2.6-0.6,3.7s-1,2.2-1.8,3c-0.8,0.9-1.7,1.5-2.8,2.1c-1.1,0.5-2.3,0.8-3.7,0.8c-1.3,0-2.4-0.3-3.5-0.8
			c-1.1-0.5-1.9-1.2-2.4-2.1H79v11.3h-4.5V11.7H78.8z M89.2,20.6c0-0.7-0.1-1.4-0.3-2.1c-0.2-0.7-0.5-1.3-1-1.8
			c-0.4-0.5-1-1-1.6-1.3c-0.6-0.3-1.4-0.5-2.3-0.5c-0.8,0-1.6,0.2-2.2,0.5c-0.6,0.3-1.2,0.8-1.7,1.3c-0.5,0.5-0.8,1.2-1,1.9
			c-0.2,0.7-0.4,1.4-0.4,2.1c0,0.7,0.1,1.4,0.4,2.1c0.2,0.7,0.6,1.3,1,1.8c0.5,0.5,1,1,1.7,1.3c0.6,0.3,1.4,0.5,2.2,0.5
			c0.9,0,1.6-0.2,2.3-0.5c0.6-0.3,1.2-0.8,1.6-1.3c0.4-0.5,0.7-1.2,1-1.9C89.1,22,89.2,21.3,89.2,20.6z"/>
		<path style="fill:#22B573;" d="M98.2,1.4h4.5v28.2h-4.5V1.4z"/>
		<path style="fill:#22B573;" d="M125.2,20.9c0,0.2,0,0.4,0,0.6c0,0.2,0,0.4,0,0.6h-13.6c0,0.6,0.2,1.2,0.5,1.8
			c0.3,0.5,0.7,1,1.1,1.4c0.5,0.4,1,0.7,1.6,0.9c0.6,0.2,1.2,0.3,1.9,0.3c1.1,0,2.1-0.2,2.8-0.6c0.8-0.4,1.4-1,1.9-1.7l3,2.4
			c-1.8,2.4-4.3,3.6-7.7,3.6c-1.4,0-2.7-0.2-3.8-0.7c-1.2-0.4-2.2-1.1-3-1.8c-0.9-0.8-1.5-1.8-2-2.9s-0.7-2.5-0.7-3.9
			c0-1.4,0.2-2.8,0.7-3.9c0.5-1.2,1.2-2.2,2-3c0.8-0.8,1.8-1.5,3-1.9c1.2-0.5,2.4-0.7,3.8-0.7c1.2,0,2.4,0.2,3.5,0.6
			c1.1,0.4,2,1,2.7,1.8c0.8,0.8,1.4,1.8,1.8,3C125,17.9,125.2,19.3,125.2,20.9z M120.8,18.9c0-0.6-0.1-1.1-0.2-1.6
			c-0.2-0.5-0.4-1-0.8-1.4c-0.3-0.4-0.8-0.7-1.3-1c-0.5-0.2-1.2-0.4-1.9-0.4c-1.3,0-2.5,0.4-3.4,1.2c-0.9,0.8-1.5,1.8-1.5,3.1H120.8
			z"/>
		<path style="fill:#29ABE2;" d="M160.8,25.5c-0.5,0.7-1.1,1.3-1.8,1.9c-0.7,0.6-1.5,1.1-2.4,1.5c-0.9,0.4-1.9,0.8-2.9,1
			c-1.1,0.3-2.2,0.4-3.5,0.4c-1.8,0-3.4-0.3-4.8-0.8c-1.5-0.5-2.7-1.3-3.8-2.3c-1-1-1.9-2.2-2.4-3.6c-0.6-1.4-0.9-2.9-0.9-4.6
			c0-2.3,0.4-4.4,1.2-6.4c0.8-2,1.9-3.7,3.4-5.2c1.4-1.5,3.1-2.7,5-3.5c1.9-0.9,4-1.3,6.2-1.3c1,0,1.9,0.1,2.8,0.3
			c0.9,0.2,1.7,0.5,2.5,0.8c0.8,0.4,1.5,0.8,2.1,1.3c0.6,0.5,1.1,1.1,1.5,1.8l-2.4,1.6c-0.2-0.4-0.5-0.8-0.9-1.3
			c-0.4-0.4-0.9-0.8-1.4-1.1c-0.5-0.3-1.2-0.6-1.9-0.8s-1.5-0.3-2.4-0.3c-1.9,0-3.6,0.4-5.2,1.2c-1.6,0.8-2.9,1.8-4.1,3.1
			c-1.1,1.3-2,2.8-2.7,4.4s-1,3.4-1,5.2c0,1.3,0.2,2.5,0.6,3.6c0.4,1.1,1,2.1,1.8,2.9c0.8,0.8,1.7,1.5,2.9,2
			c1.1,0.5,2.4,0.7,3.9,0.7c1.6,0,3.1-0.3,4.6-1c1.4-0.6,2.7-1.6,3.9-3L160.8,25.5z"/>
		<path style="fill:#29ABE2;" d="M176.7,18.9c0.1-0.4,0.1-0.8,0.1-1c0-0.2,0-0.5,0-0.7c0-1.3-0.4-2.2-1.1-2.7
			c-0.7-0.5-1.7-0.8-3-0.8c-1,0-2.1,0.2-3,0.6s-1.8,0.9-2.4,1.5l-1.1-1.7c0.8-0.7,1.9-1.4,3.1-1.8c1.2-0.5,2.5-0.7,3.7-0.7
			c0.8,0,1.6,0.1,2.4,0.3c0.8,0.2,1.4,0.5,2,0.9c0.6,0.4,1,0.9,1.3,1.6s0.5,1.4,0.5,2.3c0,0.2,0,0.5,0,0.9c0,0.4-0.1,0.7-0.1,1
			l-1.3,7.1c-0.1,0.7-0.2,1.4-0.3,2.1c-0.1,0.7-0.1,1.3-0.1,1.8h-2.2c0-0.4,0-0.9,0.1-1.4c0-0.5,0.1-1,0.2-1.5h-0.1
			c-0.5,0.6-1,1.1-1.5,1.5s-1,0.7-1.5,1c-0.5,0.2-1.1,0.4-1.7,0.5c-0.6,0.1-1.3,0.2-2,0.2c-0.6,0-1.2-0.1-1.8-0.2
			c-0.6-0.1-1.2-0.4-1.7-0.8c-0.5-0.4-0.9-0.8-1.3-1.4c-0.3-0.6-0.5-1.3-0.5-2.1c0-1.4,0.4-2.5,1.2-3.4c0.8-0.9,1.8-1.5,3.1-2
			c1.3-0.5,2.7-0.8,4.3-0.9C173.5,19,175.1,18.9,176.7,18.9z M175.8,20.8c-1.1,0-2.3,0.1-3.4,0.2s-2.2,0.3-3.2,0.6
			c-1,0.3-1.7,0.7-2.4,1.3c-0.6,0.6-0.9,1.3-0.9,2.2c0,0.5,0.1,1,0.3,1.4s0.5,0.6,0.8,0.9c0.3,0.2,0.7,0.4,1.2,0.4
			c0.4,0.1,0.9,0.1,1.3,0.1c0.9,0,1.7-0.1,2.5-0.4c0.7-0.3,1.4-0.7,2-1.2c0.6-0.5,1-1.1,1.4-1.8c0.4-0.7,0.6-1.4,0.8-2.2l0.3-1.5
			H175.8z"/>
		<path style="fill:#29ABE2;" d="M186.3,29.6h-2.5l5-28.2h2.5L186.3,29.6z"/>
		<path style="fill:#29ABE2;" d="M207.7,16.1c-0.3-0.7-0.8-1.2-1.5-1.7c-0.7-0.4-1.6-0.7-2.5-0.7c-1.1,0-2.2,0.2-3.1,0.7
			c-0.9,0.4-1.8,1.1-2.4,1.9c-0.7,0.8-1.2,1.7-1.6,2.7c-0.4,1-0.6,2.1-0.6,3.3c0,0.8,0.1,1.5,0.4,2.2c0.2,0.7,0.6,1.3,1.1,1.8
			c0.5,0.5,1.1,0.9,1.8,1.2c0.7,0.3,1.5,0.4,2.4,0.4c1.1,0,2.1-0.2,2.9-0.6c0.8-0.4,1.6-1,2.2-1.6l1.6,1.4c-0.9,0.9-1.9,1.6-3,2.2
			s-2.4,0.8-3.9,0.8c-1.2,0-2.4-0.2-3.4-0.5s-1.9-0.9-2.6-1.5c-0.7-0.7-1.3-1.4-1.6-2.4c-0.4-0.9-0.6-1.9-0.6-3.1
			c0-1.5,0.3-2.9,0.8-4.2c0.5-1.3,1.2-2.5,2.1-3.5c0.9-1,2-1.8,3.3-2.3c1.3-0.6,2.7-0.9,4.3-0.9c1.3,0,2.5,0.2,3.6,0.7
			c1.1,0.5,2,1.2,2.6,2.2L207.7,16.1z"/>
		<path style="fill:#29ABE2;" d="M224,29.6c0-0.5,0.1-1,0.2-1.6c0.1-0.6,0.1-1,0.2-1.4h-0.1c-0.7,1.1-1.5,1.9-2.6,2.5
			c-1.1,0.6-2.2,0.9-3.4,0.9c-1.9,0-3.4-0.5-4.4-1.4c-1.1-0.9-1.6-2.2-1.6-3.9c0-0.3,0-0.6,0.1-0.9c0-0.3,0.1-0.6,0.1-1l1.9-10.7
			h2.5l-1.7,9.7c-0.1,0.8-0.2,1.5-0.2,2.2c0,1.2,0.3,2.2,0.9,2.9c0.6,0.7,1.6,1,3,1c0.7,0,1.3-0.1,2-0.4c0.7-0.3,1.3-0.7,1.9-1.3
			c0.6-0.6,1.1-1.3,1.5-2.1c0.4-0.9,0.8-1.9,1-3l1.6-9h2.5L227,25.8c-0.1,0.5-0.2,1.1-0.3,1.8c-0.1,0.7-0.2,1.4-0.2,2H224z"/>
		<path style="fill:#29ABE2;" d="M235.9,29.6h-2.5l5-28.2h2.5L235.9,29.6z"/>
		<path style="fill:#29ABE2;" d="M255.7,18.9c0.1-0.4,0.1-0.8,0.1-1c0-0.2,0-0.5,0-0.7c0-1.3-0.4-2.2-1.1-2.7
			c-0.7-0.5-1.7-0.8-3-0.8c-1,0-2.1,0.2-3,0.6s-1.8,0.9-2.4,1.5l-1.1-1.7c0.8-0.7,1.9-1.4,3.1-1.8c1.2-0.5,2.5-0.7,3.7-0.7
			c0.8,0,1.6,0.1,2.4,0.3c0.8,0.2,1.4,0.5,2,0.9c0.6,0.4,1,0.9,1.3,1.6s0.5,1.4,0.5,2.3c0,0.2,0,0.5,0,0.9c0,0.4-0.1,0.7-0.1,1
			l-1.3,7.1c-0.1,0.7-0.2,1.4-0.3,2.1c-0.1,0.7-0.1,1.3-0.1,1.8h-2.2c0-0.4,0-0.9,0.1-1.4c0-0.5,0.1-1,0.2-1.5h-0.1
			c-0.5,0.6-1,1.1-1.5,1.5s-1,0.7-1.5,1c-0.5,0.2-1.1,0.4-1.7,0.5c-0.6,0.1-1.3,0.2-2,0.2c-0.6,0-1.2-0.1-1.8-0.2
			c-0.6-0.1-1.2-0.4-1.7-0.8c-0.5-0.4-0.9-0.8-1.3-1.4c-0.3-0.6-0.5-1.3-0.5-2.1c0-1.4,0.4-2.5,1.2-3.4c0.8-0.9,1.8-1.5,3.1-2
			c1.3-0.5,2.7-0.8,4.3-0.9C252.4,19,254.1,18.9,255.7,18.9z M254.7,20.8c-1.1,0-2.3,0.1-3.4,0.2s-2.2,0.3-3.2,0.6
			c-1,0.3-1.7,0.7-2.4,1.3c-0.6,0.6-0.9,1.3-0.9,2.2c0,0.5,0.1,1,0.3,1.4s0.5,0.6,0.8,0.9c0.3,0.2,0.7,0.4,1.2,0.4
			c0.4,0.1,0.9,0.1,1.3,0.1c0.9,0,1.7-0.1,2.5-0.4c0.7-0.3,1.4-0.7,2-1.2c0.6-0.5,1-1.1,1.4-1.8c0.4-0.7,0.6-1.4,0.8-2.2l0.3-1.5
			H254.7z"/>
		<path style="fill:#29ABE2;" d="M272.2,14.3h-4.7l-1.8,10.3c-0.1,0.4-0.1,0.8-0.1,1.2c0,0.8,0.2,1.4,0.6,1.6
			c0.4,0.3,0.9,0.4,1.6,0.4c0.3,0,0.7-0.1,1.2-0.2c0.4-0.1,0.7-0.3,1-0.4l-0.3,2.2c-0.3,0.2-0.7,0.3-1.3,0.4
			c-0.5,0.1-1.1,0.1-1.6,0.1c-0.4,0-0.9-0.1-1.3-0.1s-0.8-0.3-1.2-0.5c-0.4-0.3-0.7-0.6-0.9-1.1c-0.2-0.4-0.4-1-0.4-1.7
			c0-0.3,0-0.7,0.1-1.2l1.9-10.9h-3.6l0.4-2.1h3.5l0.9-4.9h2.5l-0.9,4.9h4.8L272.2,14.3z"/>
		<path style="fill:#29ABE2;" d="M281.7,30.1c-1.2,0-2.3-0.2-3.2-0.6c-1-0.4-1.8-0.9-2.6-1.5c-0.7-0.7-1.3-1.5-1.7-2.4
			c-0.4-0.9-0.6-2-0.6-3.1c0-1.5,0.3-2.9,0.8-4.2c0.5-1.3,1.2-2.5,2.1-3.4c0.9-1,2-1.8,3.3-2.3c1.3-0.6,2.7-0.9,4.2-0.9
			c1.2,0,2.3,0.2,3.3,0.5c1,0.4,1.8,0.9,2.5,1.5s1.3,1.5,1.7,2.4c0.4,0.9,0.6,1.9,0.6,3.1c0,1.5-0.3,2.9-0.8,4.2
			c-0.5,1.3-1.2,2.5-2.1,3.4c-0.9,1-2,1.7-3.3,2.3S283.2,30.1,281.7,30.1z M289.5,19.4c0-0.8-0.1-1.5-0.4-2.2
			c-0.2-0.7-0.6-1.3-1.1-1.8s-1.1-0.9-1.8-1.2c-0.7-0.3-1.5-0.4-2.3-0.4c-1.1,0-2.1,0.2-3,0.7c-0.9,0.5-1.7,1.1-2.4,1.9
			c-0.7,0.8-1.2,1.7-1.6,2.7c-0.4,1-0.6,2.1-0.6,3.3c0,0.8,0.1,1.5,0.4,2.2c0.2,0.7,0.6,1.3,1.1,1.8c0.5,0.5,1.1,0.9,1.8,1.2
			c0.7,0.3,1.5,0.4,2.3,0.4c1.1,0,2.1-0.2,3.1-0.7c0.9-0.5,1.7-1.1,2.4-1.9c0.7-0.8,1.2-1.7,1.6-2.7
			C289.3,21.7,289.5,20.6,289.5,19.4z"/>
		<path style="fill:#29ABE2;" d="M298.7,14.2c0.1-0.7,0.2-1.4,0.2-2h2.4c0,0.5-0.1,1-0.2,1.6c-0.1,0.6-0.1,1-0.2,1.4h0.1
			c0.6-1,1.5-1.8,2.5-2.5c1-0.6,2.1-1,3.4-1c0.3,0,0.6,0,0.9,0c0.2,0,0.5,0.1,0.8,0.1l-0.6,2.4c-0.1,0-0.4-0.1-0.7-0.1
			c-0.3,0-0.7-0.1-1-0.1c-0.7,0-1.3,0.1-2,0.4c-0.6,0.2-1.2,0.6-1.8,1.2c-0.5,0.5-1,1.2-1.4,2.1c-0.4,0.8-0.7,1.8-0.9,3l-1.6,9H296
			l2.4-13.6C298.5,15.5,298.6,14.9,298.7,14.2z"/>
	</g>
	<g>
		<rect x="30.4" y="34.9" style="fill:#22B573;" width="278" height="1"/>
	</g>
	<g>
		<path style="fill:#29ABE2;" d="M21.5,11.7c-0.6-0.8-1.5-1.5-2.7-2.1c-1.2-0.6-2.3-0.8-3.5-0.8c-0.7,0-1.4,0.1-2.1,0.3
			c-0.7,0.2-1.3,0.4-1.9,0.8c-0.6,0.4-1,0.8-1.4,1.4c-0.4,0.6-0.5,1.3-0.5,2.1c0,0.8,0.2,1.4,0.5,1.9c0.3,0.5,0.8,1,1.3,1.4
			c0.6,0.4,1.2,0.7,2,1c0.8,0.3,1.7,0.6,2.6,0.9c1.1,0.3,2.2,0.7,3.3,1.2c1.2,0.4,2.2,1,3.2,1.8c1,0.7,1.8,1.6,2.4,2.8
			c0.6,1.1,0.9,2.5,0.9,4.1c0,1.8-0.3,3.4-1,4.7c-0.7,1.3-1.6,2.5-2.7,3.3c-1.1,0.9-2.4,1.6-3.9,2c-1.5,0.4-3.1,0.7-4.7,0.7
			c-2.2,0-4.3-0.4-6.4-1.2c-2.1-0.8-3.8-2-5.1-3.6l4.3-4c0.8,1.1,1.9,2,3.3,2.7c1.4,0.7,2.7,1,4.1,1c0.7,0,1.4-0.1,2.1-0.3
			c0.7-0.2,1.4-0.5,2-0.9c0.6-0.4,1.1-0.9,1.4-1.5c0.4-0.6,0.5-1.4,0.5-2.3c0-0.9-0.2-1.6-0.6-2.2c-0.4-0.6-1-1.1-1.7-1.5
			c-0.7-0.4-1.5-0.8-2.5-1.1c-1-0.3-1.9-0.6-3-1c-1-0.3-2-0.7-3-1.1c-1-0.4-1.9-1-2.7-1.8c-0.8-0.7-1.5-1.6-2-2.7
			c-0.5-1.1-0.8-2.4-0.8-4c0-1.7,0.4-3.2,1.1-4.4S6,7,7.2,6.2c1.2-0.8,2.5-1.4,3.9-1.8c1.5-0.4,3-0.6,4.5-0.6c1.7,0,3.4,0.3,5.2,0.9
			c1.8,0.6,3.3,1.5,4.6,2.7L21.5,11.7z"/>
	</g>
</g>
</svg>
